<svg data-v-423bf9ae="" xmlns="http://www.w3.org/2000/svg" viewBox="0 0 263 90" class="iconLeftSlogan"><!----><!----><!----><g data-v-423bf9ae="" id="9be68a06-0d7f-4b28-a7d6-761b491cda4e" fill="white" transform="matrix(5.730658879632186,0,0,5.730658879632186,106.42995624158074,-2.5787959128532307)"><path d="M4.90 10.92L4.90 10.92Q3.70 10.92 2.81 10.21L2.81 10.21L2.81 10.21Q1.92 9.51 1.45 8.30L1.45 8.30L1.45 8.30Q0.98 7.08 0.98 5.60L0.98 5.60L0.98 5.60Q0.98 4.19 1.46 3.01L1.46 3.01L1.46 3.01Q1.93 1.83 2.81 1.14L2.81 1.14L2.81 1.14Q3.70 0.45 4.87 0.45L4.87 0.45L4.87 0.45Q5.49 0.45 6.03 0.73L6.03 0.73L6.03 0.73Q6.58 1.01 6.93 1.33L6.93 1.33L6.93 1.33Q7.27 1.64 7.38 1.64L7.38 1.64L7.38 1.64Q7.49 1.64 7.54 1.57L7.54 1.57L7.54 1.57Q7.59 1.50 7.64 1.34L7.64 1.34L7.91 0.56L8.26 0.56L8.32 4.90L7.92 4.90L7.92 4.90Q7.62 3.57 7.13 2.67L7.13 2.67L7.13 2.67Q6.64 1.76 6.05 1.33L6.05 1.33L6.05 1.33Q5.47 0.90 4.90 0.90L4.90 0.90L4.90 0.90Q3.93 0.90 3.40 1.48L3.40 1.48L3.40 1.48Q2.87 2.06 2.67 3.09L2.67 3.09L2.67 3.09Q2.46 4.13 2.46 5.68L2.46 5.68L2.46 5.68Q2.46 7.24 2.67 8.27L2.67 8.27L2.67 8.27Q2.87 9.31 3.40 9.89L3.40 9.89L3.40 9.89Q3.93 10.47 4.90 10.47L4.90 10.47L4.90 10.47Q5.42 10.47 5.89 10.10L5.89 10.10L5.89 10.10Q6.37 9.73 6.67 9.16L6.67 9.16L6.67 9.16Q6.97 8.58 6.97 8.02L6.97 8.02L6.97 6.76L6.97 6.76Q6.97 6.57 6.88 6.48L6.88 6.48L6.88 6.48Q6.79 6.38 6.59 6.38L6.59 6.38L5.04 6.38L5.04 5.94L9.66 5.94L9.66 6.38L8.64 6.38L8.64 6.38Q8.44 6.38 8.35 6.48L8.35 6.48L8.35 6.48Q8.26 6.57 8.26 6.76L8.26 6.76L8.26 10.85L7.81 10.85L7.81 9.58L7.81 9.58Q7.81 9.34 7.76 9.22L7.76 9.22L7.76 9.22Q7.70 9.10 7.57 9.10L7.57 9.10L7.57 9.10Q7.42 9.10 7.31 9.21L7.31 9.21L7.31 9.21Q7.20 9.32 7.08 9.52L7.08 9.52L7.08 9.52Q6.76 10.04 6.17 10.48L6.17 10.48L6.17 10.48Q5.59 10.92 4.90 10.92L4.90 10.92ZM12.54 10.84L12.54 10.84Q11.80 10.84 11.26 10.47L11.26 10.47L11.26 10.47Q10.72 10.11 10.72 9.18L10.72 9.18L10.72 9.18Q10.72 8.47 11.09 8.06L11.09 8.06L11.09 8.06Q11.45 7.66 11.94 7.48L11.94 7.48L11.94 7.48Q12.42 7.31 13.10 7.18L13.10 7.18L14.39 6.94L14.39 5.75L14.39 5.75Q14.39 4.45 13.09 4.45L13.09 4.45L13.09 4.45Q12.61 4.45 12.22 4.70L12.22 4.70L12.22 4.70Q11.83 4.94 11.83 5.25L11.83 5.25L11.83 5.25Q11.83 5.39 11.87 5.46L11.87 5.46L11.87 5.46Q11.90 5.50 11.96 5.54L11.96 5.54L11.96 5.54Q12.03 5.59 12.08 5.60L12.08 5.60L12.08 5.60Q12.33 5.67 12.47 5.80L12.47 5.80L12.47 5.80Q12.60 5.92 12.60 6.15L12.60 6.15L12.60 6.15Q12.60 6.44 12.43 6.57L12.43 6.57L12.43 6.57Q12.25 6.69 11.98 6.69L11.98 6.69L11.98 6.69Q11.68 6.69 11.42 6.45L11.42 6.45L11.42 6.45Q11.17 6.22 11.17 5.77L11.17 5.77L11.17 5.77Q11.17 5.25 11.46 4.87L11.46 4.87L11.46 4.87Q11.75 4.49 12.20 4.31L12.20 4.31L12.20 4.31Q12.66 4.12 13.13 4.12L13.13 4.12L13.13 4.12Q14.06 4.12 14.73 4.60L14.73 4.60L14.73 4.60Q15.40 5.08 15.40 6.10L15.40 6.10L15.40 9.55L15.40 9.55Q15.40 10.25 15.83 10.25L15.83 10.25L15.83 10.25Q16.18 10.25 16.34 9.84L16.34 9.84L16.34 9.84Q16.49 9.44 16.49 8.85L16.49 8.85L16.74 8.85L16.74 8.85Q16.74 9.69 16.50 10.26L16.50 10.26L16.50 10.26Q16.25 10.84 15.62 10.84L15.62 10.84L15.62 10.84Q15.02 10.84 14.72 10.48L14.72 10.48L14.72 10.48Q14.42 10.12 14.39 9.49L14.39 9.49L14.32 9.46L14.32 9.46Q14.11 9.95 13.64 10.40L13.64 10.40L13.64 10.40Q13.17 10.84 12.54 10.84L12.54 10.84ZM12.77 10.33L12.77 10.33Q13.40 10.33 13.76 9.84L13.76 9.84L13.76 9.84Q14.11 9.34 14.39 8.57L14.39 8.57L14.39 7.24L13.17 7.50L13.17 7.50Q12.50 7.64 12.20 8.06L12.20 8.06L12.20 8.06Q11.90 8.47 11.90 9.23L11.90 9.23L11.90 9.23Q11.90 9.87 12.17 10.10L12.17 10.10L12.17 10.10Q12.43 10.33 12.77 10.33L12.77 10.33ZM20.24 10.84L17.93 5.32L17.93 5.32Q17.79 4.96 17.65 4.79L17.65 4.79L17.65 4.79Q17.50 4.62 17.21 4.62L17.21 4.62L16.80 4.62L16.80 4.28L19.82 4.28L19.82 4.62L19.43 4.62L19.43 4.62Q19.26 4.62 19.12 4.71L19.12 4.71L19.12 4.71Q18.98 4.80 18.98 4.96L18.98 4.96L18.98 4.96Q18.98 5.19 19.07 5.42L19.07 5.42L20.64 9.20L21.77 5.88L21.77 5.88Q21.83 5.71 21.88 5.50L21.88 5.50L21.88 5.50Q21.92 5.29 21.92 5.17L21.92 5.17L21.92 5.17Q21.92 4.93 21.78 4.77L21.78 4.77L21.78 4.77Q21.64 4.62 21.42 4.62L21.42 4.62L21.08 4.62L21.08 4.28L23.63 4.28L23.63 4.62L23.31 4.62L23.31 4.62Q23.00 4.62 22.74 4.82L22.74 4.82L22.74 4.82Q22.48 5.03 22.34 5.45L22.34 5.45L20.50 10.84L20.24 10.84ZM25.82 2.55L25.82 2.55Q25.51 2.55 25.30 2.34L25.30 2.34L25.30 2.34Q25.09 2.13 25.09 1.82L25.09 1.82L25.09 1.82Q25.09 1.50 25.30 1.30L25.30 1.30L25.30 1.30Q25.51 1.09 25.82 1.09L25.82 1.09L25.82 1.09Q26.14 1.09 26.34 1.30L26.34 1.30L26.34 1.30Q26.54 1.50 26.54 1.82L26.54 1.82L26.54 1.82Q26.54 2.13 26.34 2.34L26.34 2.34L26.34 2.34Q26.14 2.55 25.82 2.55L25.82 2.55ZM24.50 10.67L24.50 10.33L25.09 10.33L25.09 10.33Q25.26 10.33 25.33 10.26L25.33 10.26L25.33 10.26Q25.40 10.19 25.40 10.02L25.40 10.02L25.40 4.93L25.40 4.93Q25.40 4.76 25.33 4.69L25.33 4.69L25.33 4.69Q25.26 4.62 25.09 4.62L25.09 4.62L24.50 4.62L24.50 4.28L26.40 4.28L26.40 10.02L26.40 10.02Q26.40 10.19 26.47 10.26L26.47 10.26L26.47 10.26Q26.54 10.33 26.71 10.33L26.71 10.33L27.30 10.33L27.30 10.67L24.50 10.67Z"></path></g><!----><g data-v-423bf9ae="" id="bdbe1253-7a01-4c3c-9c46-ecaaa838fa87" transform="matrix(1.1414221157695137,0,0,1.1414221157695137,-10.343879888974278,-11.465698853151771)" stroke="none" fill="white"><switch><g><path d="M89.141 35.617C86.25 22.852 77.844 14.405 68.699 10.364c11.371 10.018 21.846 29.405 8.814 47.069-5.406 7.331-16.217 10.228-20.746 8.184 0 0 7.002-1.487 11.357-5.295 8.469-8.017 11.299-20.932 4.52-32.673a25.839 25.839 0 0 0-3.357-4.575c-.018-.021-.033-.042-.051-.062-4.764-5.683-11.307-9.075-18.337-10.116-9.127-1.715-20.896.515-29.71 8.666C11.58 30.45 8.468 41.953 9.542 51.895c2.989-14.858 14.542-33.622 36.355-31.171 9.053 1.019 16.965 8.932 17.461 13.877 0 0-5.277-8.281-18.365-8.281-.24.004-.747.024-.761.024l-.167.01c-8.51.333-16.783 4.784-21.83 13.526a25.819 25.819 0 0 0-2.284 5.195l-.028.074c-2.539 6.968-2.205 14.33.407 20.938 3.079 8.763 10.896 17.841 22.361 21.397 12.502 3.878 24.02.82 32.092-5.079-14.363 4.837-36.389 4.216-45.173-15.899-3.645-8.35-.749-19.159 3.287-22.061 0 0-4.534 8.71 2.012 20.044 4.482 7.484 12.617 12.658 22.949 12.658.498 0 4.488-.311 5.926-.633l.08-.011c7.303-1.286 13.512-5.256 17.928-10.822 6.05-7.046 10.003-18.356 7.349-30.064z"></path></g></switch></g><!----><g data-v-423bf9ae="" id="651f11de-9b17-48cc-83b8-7d09caeffc39" fill="white" transform="matrix(0.5075919205402559,0,0,0.5075919205402559,111.69068872336541,58.07622518222761)"><path d="M3.51 4.44C3.70 4.42 3.78 4.34 3.78 4.19L3.78 3.91L2.60 3.91L1.89 3.91L0.70 3.91L0.70 4.19C0.70 4.34 0.80 4.42 0.98 4.44L1.12 4.44C1.19 4.44 1.29 4.45 1.43 4.45C1.57 4.45 1.72 4.47 1.89 4.47L1.89 13.26C1.72 13.26 1.57 13.27 1.43 13.27C1.29 13.27 1.19 13.29 1.12 13.29L0.98 13.29C0.80 13.30 0.70 13.38 0.70 13.54L0.70 13.82L1.89 13.82L2.60 13.82L3.78 13.82L3.78 13.54C3.78 13.38 3.70 13.30 3.51 13.29L3.37 13.29C3.30 13.29 3.21 13.27 3.07 13.27C2.93 13.27 2.77 13.26 2.60 13.26L2.60 4.47C2.77 4.47 2.93 4.45 3.07 4.45C3.21 4.45 3.30 4.44 3.37 4.44ZM19.64 3.92L19.45 3.92L12.15 3.92L11.94 3.92L11.84 3.92L11.84 5.96L12.19 5.96C12.39 5.96 12.47 5.85 12.49 5.63C12.49 5.53 12.52 5.17 12.54 4.52L15.44 4.52L15.44 13.26C15.27 13.26 15.13 13.27 14.99 13.27C14.85 13.27 14.74 13.29 14.67 13.29L14.55 13.29C14.36 13.30 14.27 13.38 14.27 13.54L14.27 13.82L15.44 13.82L16.16 13.82L17.35 13.82L17.35 13.54C17.35 13.38 17.25 13.30 17.07 13.29L16.93 13.29C16.86 13.29 16.76 13.27 16.62 13.27C16.48 13.27 16.32 13.26 16.16 13.26L16.16 4.52L19.04 4.52C19.08 5.24 19.10 5.60 19.10 5.63C19.11 5.85 19.21 5.96 19.40 5.96L19.74 5.96L19.74 3.92ZM28.71 3.91L28.13 3.91L28.13 5.95L28.20 7.03C28.21 7.11 28.22 7.17 28.27 7.21C28.31 7.25 28.35 7.28 28.42 7.28C28.50 7.28 28.56 7.25 28.59 7.21C28.62 7.17 28.64 7.11 28.66 7.03L28.71 5.95ZM43.13 9.91C42.99 9.65 42.80 9.39 42.56 9.21C42.32 9.03 42.07 8.88 41.78 8.75C41.48 8.62 41.16 8.51 40.85 8.41C40.54 8.32 40.24 8.20 39.94 8.11C39.65 7.99 39.38 7.87 39.14 7.71C38.91 7.56 38.72 7.38 38.58 7.15C38.44 6.93 38.36 6.65 38.36 6.31C38.36 6.06 38.42 5.82 38.51 5.59C38.61 5.35 38.75 5.15 38.93 4.97C39.12 4.79 39.34 4.65 39.62 4.55C39.90 4.45 40.21 4.40 40.57 4.40C41.24 4.40 41.86 4.51 42.42 4.75C42.46 5.54 42.49 5.99 42.49 6.06C42.50 6.29 42.59 6.41 42.78 6.41L43.12 6.41L43.12 4.38C42.24 4.00 41.40 3.81 40.57 3.81C40.11 3.81 39.70 3.88 39.34 4.02C38.98 4.16 38.68 4.34 38.44 4.58C38.21 4.82 38.01 5.08 37.88 5.39C37.76 5.70 37.70 6.02 37.70 6.36C37.70 6.78 37.77 7.14 37.91 7.42C38.05 7.70 38.25 7.92 38.49 8.12C38.72 8.32 38.98 8.46 39.27 8.58C39.56 8.71 39.89 8.82 40.19 8.92C40.50 9.02 40.80 9.11 41.10 9.21C41.40 9.31 41.66 9.45 41.90 9.60C42.14 9.76 42.32 9.94 42.46 10.16C42.60 10.39 42.67 10.68 42.67 11.03C42.67 11.35 42.62 11.66 42.50 11.94C42.39 12.22 42.24 12.46 42.03 12.67C41.82 12.88 41.55 13.05 41.24 13.16C40.94 13.29 40.59 13.33 40.19 13.33C39.41 13.33 38.75 13.20 38.22 12.95C38.21 12.75 38.21 12.54 38.19 12.32C38.18 12.10 38.18 11.91 38.16 11.76C38.15 11.61 38.15 11.52 38.15 11.51C38.14 11.28 38.04 11.17 37.84 11.17L37.51 11.17L37.51 13.02L37.51 13.20L37.51 13.38C38.36 13.75 39.24 13.93 40.17 13.93C40.67 13.93 41.12 13.85 41.51 13.69C41.90 13.54 42.24 13.31 42.50 13.05C42.77 12.78 42.99 12.46 43.13 12.10C43.27 11.73 43.34 11.34 43.34 10.92C43.34 10.51 43.27 10.18 43.13 9.91ZM71.27 13.22L70.81 13.17L67.03 3.91L66.32 3.91L62.52 13.17L62.08 13.22C61.89 13.23 61.81 13.33 61.81 13.50L61.81 13.82L62.26 13.82L62.55 13.82L62.80 13.82L62.90 13.82L64.22 13.82L64.22 13.50C64.22 13.31 64.11 13.23 63.90 13.22C63.88 13.22 63.85 13.20 63.81 13.20C63.77 13.20 63.71 13.19 63.62 13.19C63.52 13.19 63.39 13.19 63.25 13.17L64.23 10.75L64.30 10.57L69.03 10.57L69.10 10.75L70.08 13.17C69.94 13.19 69.83 13.19 69.73 13.19C69.64 13.19 69.57 13.20 69.52 13.20C69.48 13.20 69.45 13.22 69.44 13.22C69.23 13.23 69.12 13.31 69.12 13.50L69.12 13.82L70.43 13.82L70.53 13.82L70.80 13.82L71.08 13.82L71.54 13.82L71.54 13.50C71.54 13.33 71.46 13.23 71.27 13.22ZM66.47 5.22C66.50 5.14 66.54 5.04 66.57 4.94C66.60 4.84 66.64 4.75 66.67 4.63C66.70 4.75 66.74 4.84 66.77 4.94C66.79 5.04 66.84 5.12 66.86 5.21L68.82 10.04L64.53 10.04ZM86.14 11.97C85.95 11.97 85.86 12.08 85.85 12.31C85.85 12.32 85.85 12.38 85.83 12.43C85.82 12.49 85.82 12.59 85.81 12.71C85.79 12.84 85.78 13.01 85.76 13.20L81.68 13.20L81.68 4.47C81.84 4.47 81.98 4.45 82.12 4.45C82.26 4.45 82.38 4.44 82.45 4.44L82.57 4.44C82.75 4.42 82.85 4.34 82.85 4.19L82.85 3.92L81.68 3.92L80.96 3.92L79.77 3.92L79.77 4.19C79.77 4.34 79.87 4.42 80.05 4.44L80.19 4.44C80.26 4.44 80.36 4.45 80.50 4.45C80.64 4.45 80.79 4.47 80.96 4.47L80.96 13.26C80.79 13.26 80.64 13.27 80.50 13.27C80.36 13.27 80.26 13.29 80.19 13.29L80.05 13.29C79.87 13.30 79.77 13.38 79.77 13.54L79.77 13.82L80.96 13.82L86.24 13.82L86.37 13.82L86.49 13.82L86.49 13.55L86.49 12.99L86.49 11.97L86.21 11.97ZM101.29 11.97C101.09 11.97 101.01 12.08 101.00 12.31C101.00 12.32 101.00 12.38 100.98 12.43C100.97 12.49 100.97 12.59 100.95 12.71C100.94 12.84 100.93 13.01 100.91 13.20L96.82 13.20L96.82 4.47C96.99 4.47 97.13 4.45 97.27 4.45C97.41 4.45 97.52 4.44 97.59 4.44L97.72 4.44C97.90 4.42 98 4.34 98 4.19L98 3.92L96.82 3.92L96.11 3.92L94.92 3.92L94.92 4.19C94.92 4.34 95.02 4.42 95.20 4.44L95.34 4.44C95.41 4.44 95.51 4.45 95.65 4.45C95.79 4.45 95.94 4.47 96.11 4.47L96.11 13.26C95.94 13.26 95.79 13.27 95.65 13.27C95.51 13.27 95.41 13.29 95.34 13.29L95.20 13.29C95.02 13.30 94.92 13.38 94.92 13.54L94.92 13.82L96.11 13.82L101.39 13.82L101.51 13.82L101.64 13.82L101.64 13.55L101.64 12.99L101.64 11.97L101.36 11.97ZM129.74 13.22L129.28 13.17L125.50 3.91L124.78 3.91L120.99 13.17L120.54 13.22C120.36 13.23 120.27 13.33 120.27 13.50L120.27 13.82L120.72 13.82L121.02 13.82L121.27 13.82L121.37 13.82L122.68 13.82L122.68 13.50C122.68 13.31 122.57 13.23 122.36 13.22C122.35 13.22 122.32 13.20 122.28 13.20C122.23 13.20 122.18 13.19 122.08 13.19C121.98 13.19 121.86 13.19 121.72 13.17L122.70 10.75L122.77 10.57L127.50 10.57L127.57 10.75L128.55 13.17C128.41 13.19 128.30 13.19 128.20 13.19C128.10 13.19 128.03 13.20 127.99 13.20C127.95 13.20 127.92 13.22 127.90 13.22C127.69 13.23 127.58 13.31 127.58 13.50L127.58 13.82L128.90 13.82L129.00 13.82L129.26 13.82L129.54 13.82L130.00 13.82L130.00 13.50C130.00 13.33 129.92 13.23 129.74 13.22ZM124.94 5.22C124.96 5.14 125.01 5.04 125.03 4.94C125.06 4.84 125.10 4.75 125.13 4.63C125.16 4.75 125.20 4.84 125.23 4.94C125.26 5.04 125.30 5.12 125.33 5.21L127.29 10.04L122.99 10.04ZM145.35 9.52C144.93 9.11 144.33 8.86 143.54 8.75C143.86 8.67 144.14 8.55 144.40 8.40C144.65 8.25 144.87 8.08 145.04 7.87C145.21 7.66 145.35 7.43 145.43 7.20C145.52 6.96 145.57 6.71 145.57 6.44C145.57 6.05 145.49 5.68 145.36 5.38C145.24 5.07 145.03 4.80 144.76 4.58C144.49 4.37 144.16 4.20 143.74 4.09C143.32 3.98 142.83 3.92 142.27 3.92L139.43 3.92L138.24 3.92L138.24 4.19C138.24 4.34 138.33 4.42 138.52 4.44L138.66 4.44C138.73 4.44 138.82 4.45 138.96 4.45C139.10 4.45 139.26 4.47 139.43 4.47L139.43 13.26C139.26 13.26 139.10 13.27 138.96 13.27C138.82 13.27 138.73 13.29 138.66 13.29L138.52 13.29C138.33 13.30 138.25 13.38 138.25 13.54L138.25 13.82L139.43 13.82L142.63 13.82C143.16 13.82 143.63 13.76 144.05 13.64C144.47 13.51 144.82 13.34 145.10 13.10C145.38 12.87 145.60 12.59 145.75 12.25C145.91 11.91 145.98 11.54 145.98 11.12C145.98 10.46 145.77 9.93 145.35 9.52ZM140.14 4.48L142.27 4.48C143.15 4.48 143.81 4.66 144.23 5.00C144.65 5.35 144.86 5.84 144.86 6.51C144.86 6.76 144.82 7.03 144.72 7.27C144.62 7.50 144.47 7.71 144.26 7.91C144.05 8.11 143.78 8.26 143.46 8.37C143.14 8.48 142.74 8.55 142.28 8.55L140.14 8.55ZM144.59 12.68C144.14 13.06 143.49 13.24 142.62 13.24L140.14 13.24L140.14 9.07L142.63 9.07C143.05 9.07 143.42 9.11 143.74 9.21C144.06 9.31 144.34 9.45 144.56 9.62C144.79 9.80 144.96 10.00 145.08 10.25C145.19 10.50 145.26 10.79 145.26 11.10C145.26 11.79 145.04 12.31 144.59 12.68ZM163.44 8.86C163.44 8.11 163.31 7.41 163.09 6.79C162.86 6.17 162.54 5.64 162.12 5.19C161.70 4.75 161.21 4.40 160.64 4.16C160.06 3.92 159.40 3.79 158.70 3.79C158.00 3.79 157.37 3.92 156.80 4.16C156.23 4.40 155.72 4.75 155.30 5.19C154.88 5.64 154.56 6.17 154.34 6.79C154.11 7.41 153.99 8.11 153.99 8.86C153.99 9.63 154.11 10.33 154.34 10.95C154.56 11.56 154.88 12.10 155.30 12.54C155.72 12.99 156.23 13.33 156.80 13.57C157.37 13.80 158.00 13.93 158.70 13.93C159.40 13.93 160.06 13.80 160.64 13.57C161.21 13.33 161.70 12.99 162.12 12.54C162.54 12.10 162.86 11.56 163.09 10.95C163.31 10.33 163.44 9.63 163.44 8.86ZM162.68 8.86C162.68 9.56 162.60 10.18 162.40 10.72C162.20 11.27 161.94 11.75 161.59 12.12C161.24 12.50 160.82 12.81 160.33 13.01C159.84 13.20 159.31 13.30 158.70 13.30C158.12 13.30 157.58 13.20 157.09 13.01C156.60 12.81 156.18 12.50 155.83 12.12C155.48 11.75 155.20 11.27 155.01 10.72C154.81 10.18 154.73 9.56 154.73 8.86C154.73 8.18 154.81 7.55 155.01 7.00C155.20 6.45 155.48 5.98 155.83 5.60C156.18 5.22 156.60 4.91 157.09 4.72C157.58 4.52 158.12 4.41 158.70 4.41C159.31 4.41 159.84 4.52 160.33 4.72C160.82 4.91 161.24 5.22 161.59 5.60C161.94 5.98 162.20 6.45 162.40 7.00C162.60 7.55 162.68 8.18 162.68 8.86ZM179.68 3.92L178.96 3.92L177.60 3.92L177.60 4.19C177.60 4.34 177.70 4.42 177.88 4.44L178.05 4.44C178.15 4.44 178.29 4.45 178.46 4.45C178.63 4.45 178.79 4.47 178.96 4.47L178.96 10.04C178.96 10.50 178.89 10.92 178.75 11.33C178.61 11.73 178.42 12.08 178.15 12.38C177.88 12.67 177.58 12.89 177.20 13.06C176.82 13.23 176.40 13.31 175.92 13.31C175.45 13.31 175.01 13.23 174.64 13.06C174.26 12.89 173.94 12.66 173.68 12.36C173.42 12.07 173.24 11.72 173.10 11.33C172.96 10.93 172.89 10.50 172.89 10.04L172.89 4.47C173.05 4.47 173.22 4.45 173.39 4.45C173.56 4.45 173.70 4.44 173.80 4.44L173.96 4.44C174.15 4.42 174.24 4.34 174.24 4.19L174.24 3.92L172.89 3.92L172.17 3.92L171.00 3.92L171.00 4.19C171.00 4.34 171.08 4.42 171.26 4.44L171.40 4.44C171.47 4.44 171.57 4.45 171.71 4.45C171.85 4.45 172.00 4.47 172.17 4.47L172.17 10.04C172.17 10.58 172.26 11.09 172.42 11.56C172.59 12.04 172.84 12.46 173.17 12.81C173.49 13.16 173.89 13.44 174.36 13.64C174.82 13.83 175.35 13.93 175.92 13.93C176.50 13.93 177.02 13.83 177.48 13.64C177.94 13.44 178.35 13.16 178.67 12.81C178.99 12.46 179.24 12.04 179.41 11.56C179.58 11.09 179.68 10.58 179.68 10.04L179.68 4.47C179.84 4.47 179.98 4.45 180.12 4.45C180.26 4.45 180.38 4.44 180.45 4.44L180.57 4.44C180.75 4.42 180.85 4.34 180.85 4.19L180.85 3.92ZM196.39 3.92L196.20 3.92L188.90 3.92L188.69 3.92L188.59 3.92L188.59 5.96L188.94 5.96C189.14 5.96 189.22 5.85 189.24 5.63C189.24 5.53 189.27 5.17 189.29 4.52L192.19 4.52L192.19 13.26C192.02 13.26 191.88 13.27 191.74 13.27C191.60 13.27 191.49 13.29 191.42 13.29L191.30 13.29C191.11 13.30 191.02 13.38 191.02 13.54L191.02 13.82L192.19 13.82L192.91 13.82L194.10 13.82L194.10 13.54C194.10 13.38 194.00 13.30 193.82 13.29L193.68 13.29C193.61 13.29 193.51 13.27 193.37 13.27C193.23 13.27 193.07 13.26 192.91 13.26L192.91 4.52L195.79 4.52C195.83 5.24 195.85 5.60 195.85 5.63C195.86 5.85 195.96 5.96 196.15 5.96L196.49 5.96L196.49 3.92ZM223.29 3.92L222.57 3.92L221.21 3.92L221.21 4.19C221.21 4.34 221.31 4.42 221.49 4.44L221.66 4.44C221.76 4.44 221.90 4.45 222.07 4.45C222.24 4.45 222.40 4.47 222.57 4.47L222.57 10.04C222.57 10.50 222.50 10.92 222.36 11.33C222.22 11.73 222.03 12.08 221.76 12.38C221.49 12.67 221.19 12.89 220.81 13.06C220.43 13.23 220.01 13.31 219.53 13.31C219.06 13.31 218.62 13.23 218.25 13.06C217.87 12.89 217.55 12.66 217.29 12.36C217.03 12.07 216.85 11.72 216.71 11.33C216.57 10.93 216.50 10.50 216.50 10.04L216.50 4.47C216.66 4.47 216.83 4.45 217 4.45C217.17 4.45 217.31 4.44 217.41 4.44L217.57 4.44C217.76 4.42 217.85 4.34 217.85 4.19L217.85 3.92L216.50 3.92L215.78 3.92L214.61 3.92L214.61 4.19C214.61 4.34 214.69 4.42 214.87 4.44L215.01 4.44C215.08 4.44 215.18 4.45 215.32 4.45C215.46 4.45 215.61 4.47 215.78 4.47L215.78 10.04C215.78 10.58 215.87 11.09 216.03 11.56C216.20 12.04 216.45 12.46 216.78 12.81C217.10 13.16 217.50 13.44 217.97 13.64C218.43 13.83 218.96 13.93 219.53 13.93C220.11 13.93 220.63 13.83 221.09 13.64C221.55 13.44 221.96 13.16 222.28 12.81C222.60 12.46 222.85 12.04 223.02 11.56C223.19 11.09 223.29 10.58 223.29 10.04L223.29 4.47C223.45 4.47 223.59 4.45 223.73 4.45C223.87 4.45 223.99 4.44 224.06 4.44L224.18 4.44C224.36 4.42 224.46 4.34 224.46 4.19L224.46 3.92ZM238.21 9.91C238.07 9.65 237.87 9.39 237.64 9.21C237.40 9.03 237.15 8.88 236.85 8.75C236.56 8.62 236.24 8.51 235.93 8.41C235.62 8.32 235.31 8.20 235.02 8.11C234.72 7.99 234.46 7.87 234.22 7.71C233.98 7.56 233.80 7.38 233.66 7.15C233.52 6.93 233.44 6.65 233.44 6.31C233.44 6.06 233.49 5.82 233.59 5.59C233.69 5.35 233.83 5.15 234.01 4.97C234.19 4.79 234.42 4.65 234.70 4.55C234.98 4.45 235.28 4.40 235.65 4.40C236.32 4.40 236.94 4.51 237.50 4.75C237.54 5.54 237.57 5.99 237.57 6.06C237.58 6.29 237.66 6.41 237.86 6.41L238.20 6.41L238.20 4.38C237.31 4.00 236.47 3.81 235.65 3.81C235.19 3.81 234.78 3.88 234.42 4.02C234.05 4.16 233.76 4.34 233.52 4.58C233.28 4.82 233.09 5.08 232.96 5.39C232.83 5.70 232.78 6.02 232.78 6.36C232.78 6.78 232.85 7.14 232.99 7.42C233.13 7.70 233.32 7.92 233.56 8.12C233.80 8.32 234.05 8.46 234.35 8.58C234.64 8.71 234.96 8.82 235.27 8.92C235.58 9.02 235.87 9.11 236.18 9.21C236.47 9.31 236.74 9.45 236.98 9.60C237.22 9.76 237.40 9.94 237.54 10.16C237.68 10.39 237.75 10.68 237.75 11.03C237.75 11.35 237.69 11.66 237.58 11.94C237.47 12.22 237.31 12.46 237.10 12.67C236.89 12.88 236.63 13.05 236.32 13.16C236.01 13.29 235.66 13.33 235.27 13.33C234.49 13.33 233.83 13.20 233.30 12.95C233.28 12.75 233.28 12.54 233.27 12.32C233.25 12.10 233.25 11.91 233.24 11.76C233.23 11.61 233.23 11.52 233.23 11.51C233.21 11.28 233.11 11.17 232.92 11.17L232.58 11.17L232.58 13.02L232.58 13.20L232.58 13.38C233.44 13.75 234.32 13.93 235.24 13.93C235.75 13.93 236.19 13.85 236.59 13.69C236.98 13.54 237.31 13.31 237.58 13.05C237.85 12.78 238.07 12.46 238.21 12.10C238.35 11.73 238.42 11.34 238.42 10.92C238.42 10.51 238.35 10.18 238.21 9.91Z"></path></g></svg>